<svg id="eSzspoX5Zhu1" xmlns="http://www.w3.org/2000/svg" xmlns:xlink="http://www.w3.org/1999/xlink" viewBox="0 0 3000 2000" shape-rendering="geometricPrecision" text-rendering="geometricPrecision" project-id="25da870c6bfc483b94043490306f8cbf" export-id="97c6df9c75614a178106d4ee7035f3b4" cached="false"><rect width="3000" height="2000" rx="0" ry="0" fill="#fff"/><g><g><path d="M601.445,1645.494c0,0-326.79-735.363-91.621-899.11c157.188-109.449,323.8,131.826,522.662,4.186c177.044-113.635,120.761-459.361,403.12-507.147c317.464-53.727,387.364,591.098,647.892,502.961c316.134-106.948,630.603,110.158,358.844,900.514l-1840.897-1.404Z" fill="#c8eac9"/><path d="M345.756,1581.89c-5.486-14.114-10.914-28.739-16.132-43.468l12.861-3.212c5.185,14.634,10.577,29.163,16.026,43.183l-12.755,3.497Zm2300.804-18.228l-13.316-1.381c2.211-15.024,4.311-30.156,6.241-44.973l13.338,1.225c-1.937,14.87-4.045,30.054-6.263,45.129ZM314.811,1494.638c-4.697-14.556-9.251-29.383-13.537-44.069l13.032-2.682c4.261,14.598,8.788,29.335,13.456,43.804l-12.951,2.947Zm2343.504-21.307l-13.357-1.06c1.698-15.085,3.27-30.259,4.672-45.1l13.375.89c-1.406,14.898-2.984,30.128-4.69,45.27Zm-2369.302-67.09c-3.876-14.83-7.563-29.825-10.96-44.57l13.174-2.139c3.376,14.653,7.041,29.556,10.892,44.294l-13.106,2.415Zm2377.844-23.512l-13.391-.712c1.135-15.074,2.132-30.28,2.959-45.193l13.403.525c-.831,14.975-1.83,30.243-2.971,45.38ZM268.438,1316.88c-2.984-15.012-5.746-30.149-8.21-44.993l13.289-1.555c2.448,14.744,5.192,29.78,8.156,44.693l-13.235,1.855Zm2403.439-24.953l-13.413-.327c.524-15.141.885-30.363,1.073-45.243l13.418.119c-.19,14.949-.551,30.241-1.078,45.451ZM253.494,1226.714c-2-15.162-3.742-30.412-5.175-45.325l13.374-.907c1.423,14.802,3.151,29.939,5.137,44.992l-13.336,1.24Zm2406.099-25.604c-.158-15.153-.501-30.37-1.02-45.229l13.413-.329c.52,14.936.865,30.23,1.024,45.46l-13.417.098ZM244.8,1135.944c-.89-15.252-1.48-30.564-1.754-45.513l13.417-.174c.271,14.824.857,30.01,1.739,45.136l-13.402.551Zm2411.617-25.253c-.921-15.133-2.054-30.317-3.366-45.13l13.379-.836c1.321,14.899,2.459,30.171,3.386,45.39l-13.399.576ZM256.589,1045.104l-13.415-.232c.374-15.292,1.094-30.61,2.142-45.525l13.395.663c-1.038,14.773-1.752,29.944-2.122,45.094Zm2391.807-24.582c-1.792-15.13-3.823-30.241-6.032-44.915l13.312-1.413c2.225,14.772,4.267,29.985,6.073,45.213l-13.353,1.115ZM262.966,955.036l-13.351-1.126c1.823-15.235,4.044-30.462,6.605-45.258l13.278,1.62c-2.532,14.633-4.73,29.694-6.532,44.764Zm2371.886-24.172c-2.792-15.034-5.856-30.012-9.108-44.517l13.185-2.085c3.28,14.62,6.369,29.716,9.182,44.866l-13.259,1.736Zm-1586.88-1.59c-18.644-2.468-32.13-9.594-50.811-21.9l8.481-8.73c16.365,10.752,28.185,17.202,43.759,19.428l-1.429,11.202Zm46.552-26.804l-11.949-5.124c6.142-10.099,11.572-24.113,16.139-41.653l13.108,2.405c-4.88,18.746-10.539,33.259-17.298,44.372ZM957.782,875.063c-10.689-9.994-22.112-21.496-34.921-35.164l10.544-6.967c12.628,13.474,23.868,24.793,34.361,34.604l-9.984,7.527Zm-679.322-9.24l-13.172-2.146c3.476-15.037,7.409-30.03,11.69-44.565l13.025,2.705c-4.227,14.35-8.11,29.156-11.543,44.006Zm2336.439-23.7c-3.973-14.88-8.26-29.631-12.74-43.844l12.972-2.883c4.523,14.351,8.849,29.243,12.858,44.262l-13.09,2.465Zm-1494.05-29.364l-13.308-1.438c2.061-13.447,3.908-28.173,5.646-45.019l13.368.973c-1.754,17.003-3.62,31.881-5.706,45.484Zm-230.852-9.156c-10.907-12.367-22.219-25.44-31.967-36.722l10.862-6.615c9.729,11.261,21.018,24.307,31.889,36.633l-10.784,6.704Zm982.34-.927c-10.449,0-20.702-2.621-30.472-7.79l7.154-9.532c14.677,7.779,29.115,7.797,44.705,1.592l5.773,10.17c-9.218,3.689-18.356,5.56-27.16,5.56ZM304.275,778.402l-12.831-3.294c5.332-14.638,11.18-29.196,17.385-43.271l12.583,3.91c-6.115,13.873-11.88,28.224-17.137,42.655Zm1639.098-10.74l-9.858-7.642c10.173-9.251,21.079-20.663,33.341-34.888l10.87,6.606c-12.579,14.59-23.814,26.341-34.353,35.924Zm-139.66-7.746c-8.683-11.247-17.288-24.493-26.307-40.492l12.128-4.819c8.762,15.543,17.082,28.36,25.439,39.184l-11.26,6.127Zm783.622-4.989c-5.405-14.597-11.173-28.966-17.143-42.709l12.606-3.861c6.043,13.912,11.881,28.455,17.35,43.225l-12.813,3.345ZM826.232,730.151c-12.276-14.086-22.506-25.651-32.196-36.394l10.697-6.801c9.735,10.793,20.007,22.405,32.328,36.543l-10.829,6.652Zm304.36-8.373l-13.39-.727c1.017-13.199,2.052-28.034,3.163-45.354l13.398.606c-1.113,17.36-2.151,32.235-3.171,45.475ZM341.525,694.045l-12.276-4.549c7.366-14.007,15.215-27.761,23.556-41.211l11.898,5.208c-8.208,13.234-15.93,26.768-23.178,40.552Zm1666.939-.003l-11.212-6.19c9.535-12.171,19.384-25.067,29.354-38.095l11.288,6.09c-9.993,13.062-19.853,25.969-29.43,38.195Zm-252.657-16.661c-6.078-12.799-12.358-26.764-19.2-42.692l12.621-3.822c6.792,15.809,13.02,29.659,19.042,42.342l-12.463,4.172Zm794.647-7.026c-7.214-14.109-14.844-27.813-22.68-40.734l11.958-5.111c7.968,13.138,15.724,27.068,23.052,41.401l-12.33,4.444ZM760.907,658.06c-12.175-12.689-23.508-23.983-34.646-34.526l10.038-7.476c11.28,10.678,22.747,22.105,35.057,34.934l-10.449,7.068Zm375.649-27.202l-13.401-.567c.904-15.051,1.802-30.11,2.76-45.433l13.399.59c-.958,15.316-1.856,30.367-2.758,45.41Zm930.755-13.06l-11.194-6.212c11.21-14.242,21.237-26.563,30.654-37.664l10.928,6.535c-9.324,10.994-19.265,23.208-30.388,37.341Zm-1675.999-3.18l-11.309-6.063c10.544-13.865,21.415-26.387,32.312-37.218l10.25,7.27c-10.513,10.45-21.028,22.567-31.253,36.011Zm1327.38-22.919c-6.154-15.14-12.191-30.289-17.284-43.111l12.728-3.565c5.087,12.804,11.115,27.929,17.255,43.036l-12.699,3.64ZM689.37,590.91c-13.714-11.211-27.198-21.114-40.078-29.436l8.183-8.928c13.291,8.586,27.171,18.778,41.256,30.292l-9.361,8.072Zm1812.353-.481c-9.614-13.173-19.695-25.632-29.962-37.03l10.701-6.796c10.53,11.69,20.86,24.455,30.701,37.939l-11.44,5.887ZM460.2,547.957L452.062,539c16.023-10.263,32.7-17.664,49.566-21.998l3.926,10.773c-15.34,3.941-30.599,10.731-45.354,20.182Zm1669.862-3.446l-10.424-7.093c12.583-13.036,24.507-24.254,36.452-34.293l9.491,7.962c-11.612,9.76-23.231,20.694-35.519,33.424Zm-987.742-4.43l-13.393-.67c1.162-16.375,2.315-31.246,3.526-45.463l13.384.804c-1.208,14.171-2.358,28.999-3.517,45.329Zm-537.39-2.359c-16.743-6.996-33.212-11.461-48.948-13.271l1.821-11.162c17.185,1.978,35.052,6.804,53.104,14.347l-5.977,10.086Zm1832.313-18.211c-12.917-11.112-26.293-20.92-39.752-29.152l7.9-9.106c14.065,8.602,28.013,18.827,41.455,30.389l-9.603,7.869Zm-752.95-14.032c-6.675-16.762-12.175-30.429-17.311-43.012l12.692-3.652c5.148,12.61,10.659,26.303,17.344,43.092l-12.725,3.572Zm521.446-23.15l-7.69-9.231c16.501-9.693,33.169-16.872,49.54-21.336l4.144,10.715c-15.106,4.119-30.58,10.799-45.994,19.852Zm146.403-13.802c-16.618-5.885-33.439-9.528-49.997-10.826l1.247-11.217c17.925,1.406,36.08,5.33,53.963,11.663l-5.213,10.38ZM1150.129,449.522l-13.365-.997c1.672-15.807,3.491-31.072,5.407-45.373l13.334,1.259c-1.904,14.215-3.713,29.392-5.376,45.111Zm499.001-29.904c-6.484-15.195-12.593-29.085-18.68-42.462l12.535-4.02c6.119,13.451,12.26,27.413,18.776,42.682l-12.631,3.8ZM1162.336,359.49l-13.28-1.611c2.714-15.773,5.697-30.942,8.867-45.085l13.186,2.083c-3.134,13.987-6.087,28.997-8.773,44.613Zm448.181-24.398c-7.21-14.561-14.476-28.493-21.601-41.407l12.176-4.734c7.198,13.049,14.538,27.119,21.816,41.817l-12.391,4.324Zm-428.014-64.301l-13.018-2.73c4.68-15.732,9.839-30.55,15.335-44.043l12.696,3.645c-5.373,13.193-10.425,27.704-15.013,43.128Zm382.584-17.538c-8.825-13.955-17.839-27.055-26.794-38.938l11.338-6.024c9.135,12.122,18.322,25.472,27.307,39.678l-11.851,5.284Zm-347.421-66.866l-12.032-4.986c8.81-14.989,18.58-28.241,29.039-39.391l10.54,6.971c-9.881,10.535-19.149,23.12-27.547,37.406Zm289.875-8.61c-11.724-12.34-23.825-23.272-35.967-32.491l9.001-8.356c12.678,9.626,25.28,21.006,37.455,33.821l-10.489,7.026Zm-224.893-57.995l-7.234-9.489c15.895-8.542,33.407-14.096,52.051-16.507l2.043,11.134c-16.784,2.172-32.55,7.172-46.86,14.862Zm146.592-.007c-15.63-7.075-31.911-11.912-48.392-14.376l2.353-11.092c17.887,2.675,35.519,7.907,52.406,15.551l-6.367,9.917Z" fill="#c6dcf7"/><path d="M2731.593,1402.883c-111.345-14.476-93.176,116.305-251.89,116.305-145.112,0-191.536-498.037-297.117-355.67-541.273,729.86-226.966-310.386-657.431-323.605-194.644-5.977-324.346,176.062-372.175,498.37-69.331,291.378-230.119-222.239-395.588-174.484-105.164,30.35-93.12,355.388-238.232,355.388-158.714,0-140.545-130.781-251.89-116.305-119.881,15.586-155.688,247.064-155.688,247.064h2775.698c.001.002-35.806-231.477-155.687-247.063Z" fill="#c8eac9"/><path d="M2632.99,1544.448c-102.435-6.181-85.719,49.664-231.732,49.664-133.5,0-129.831-125.156-219.167-151.755-164.518-48.984-300.149,198.929-363.932,74.507-121.141-330.146-474.457-495.712-637.454,0-63.783,124.422-212.939-97.591-363.932-74.507-92.942,14.209-85.668,151.755-219.168,151.755-146.013,0-129.298-55.845-231.732-49.664-110.288,6.655-143.229,105.5-143.229,105.5h2553.576c-.001,0-32.942-98.845-143.23-105.5Z" fill="#d2e5f7"/><path d="M111.582,1649.948c0,0-17.41,59.467,63.267,74.355c110.349,20.365,758.083,73.87,600.725,114.529-88.828,22.952,45.346,54.118,478.005,65.594s1175.069-33.49,925.408-100.022s694.012,4.596,708.293-154.456h-2775.698Z" fill="#c8eac9"/></g><g><path d="M2674.75,1708.138l-316.761-62.578c-36.509-7.212-60.258-42.655-53.045-79.163L2423.337,967.1c7.212-36.509,42.655-60.258,79.163-53.045l316.762,62.577c36.508,7.213,60.257,42.655,53.044,79.163l-118.393,599.297c-7.212,36.509-42.654,60.258-79.163,53.046Z" fill="#6bbd6e"/><path d="M2581.665,1066.631l-123.155,30.205c-1.151-7.19-1.073-14.704.423-22.29c6.807-34.474,40.278-56.89,74.751-50.083c23.207,4.59,40.929,21.247,47.981,42.168Z" fill="#f4d4be"/><path d="M2509.016,1149.298c-23.206-4.589-40.928-21.246-47.981-42.167l123.155-30.205c1.151,7.19,1.073,14.704-.427,22.27-6.808,34.473-40.273,56.909-74.747,50.102Z" fill="#f4d4be"/><path d="M2541.551,1269.643l-123.135,30.2c-1.156-7.21-1.078-14.724.423-22.29c6.807-34.474,40.278-56.89,74.731-50.078c23.227,4.585,40.949,21.243,47.981,42.168Z" fill="#f4d4be"/><path d="M2468.922,1352.305c-23.206-4.589-40.928-21.246-47.98-42.167l123.154-30.205c1.151,7.19,1.073,14.704-.427,22.27-6.828,34.478-40.273,56.909-74.747,50.102Z" fill="#f4d4be"/><path d="M2501.457,1472.65l-123.154,30.205c-1.151-7.191-1.073-14.704.423-22.29c6.807-34.474,40.277-56.889,74.751-50.082c23.206,4.589,40.928,21.246,47.98,42.167Z" fill="#f4d4be"/><path d="M2428.808,1555.317c-23.206-4.589-40.929-21.246-47.98-42.167l123.154-30.205c1.152,7.191,1.073,14.704-.427,22.27-6.808,34.473-40.274,56.909-74.747,50.102Z" fill="#f4d4be"/><path d="M2716.204,1515.079l-123.134,30.2c-1.152-7.191-1.073-14.704.422-22.29c6.807-34.474,40.258-56.885,74.732-50.078c23.205,4.59,40.927,21.248,47.98,42.168Z" fill="#f4d4be"/><path d="M2643.569,1597.721c-23.206-4.589-40.923-21.226-47.975-42.147l123.134-30.2c1.151,7.19,1.073,14.704-.427,22.27-6.807,34.473-40.253,56.904-74.732,50.077Z" fill="#f4d4be"/><path d="M2756.318,1312.068l-123.154,30.205c-1.151-7.191-1.073-14.704.423-22.29c6.807-34.474,40.278-56.89,74.751-50.082c23.205,4.588,40.928,21.246,47.98,42.167Z" fill="#f4d4be"/><path d="M2683.664,1394.714c-23.186-4.594-40.928-21.246-47.956-42.152l123.134-30.2c1.152,7.19,1.073,14.704-.427,22.27-6.807,34.473-40.273,56.909-74.751,50.082Z" fill="#f4d4be"/><path d="M2796.432,1109.055l-123.154,30.205c-1.151-7.19-1.073-14.703.423-22.29c6.807-34.474,40.277-56.89,74.731-50.078c23.205,4.59,40.947,21.243,48,42.163Z" fill="#f4d4be"/><path d="M2723.783,1191.722c-23.211-4.609-40.928-21.246-47.98-42.167l123.155-30.205c1.131,7.195,1.053,14.709-.448,22.275-6.808,34.473-40.254,56.904-74.727,50.097Z" fill="#f4d4be"/></g><g><path d="M1227.018,992.789v700.074c0,35.153,128.042,63.65,285.991,63.65s285.991-28.497,285.991-63.65v-700.074h-571.982Z" fill="#4caf50"/><ellipse rx="285.991" ry="63.65" transform="translate(1513.01 992.789)" fill="#358f39"/><path d="M1295.016,737.938v227.97c0,26.795,97.599,48.517,217.994,48.517s217.994-21.722,217.994-48.517v-227.97h-435.988Z" fill="#4caf50"/><ellipse rx="217.994" ry="48.517" transform="translate(1513.01 737.938)" fill="#358f39"/><ellipse rx="205.701" ry="205.701" transform="matrix(.7071-.7071 0.7071 0.7071 1512.9921 1366.843235)" fill="#358f39"/><path d="M1647.397,1375.374h-268.776c-4.715,0-8.537-3.822-8.537-8.537s3.822-8.537,8.537-8.537h268.776c4.715,0,8.538,3.822,8.538,8.537s-3.822,8.537-8.538,8.537Z" fill="#d4e8ff"/><path d="M1647.397,1309.471h-268.776c-4.715,0-8.537-3.822-8.537-8.537s3.822-8.537,8.537-8.537h268.776c4.715,0,8.538,3.822,8.538,8.537s-3.822,8.537-8.538,8.537Z" fill="#d4e8ff"/><path d="M1647.397,1441.276h-268.776c-4.715,0-8.537-3.822-8.537-8.538c0-4.715,3.822-8.537,8.537-8.537h268.776c4.715,0,8.538,3.822,8.538,8.537c0,4.716-3.822,8.538-8.538,8.538Z" fill="#d4e8ff"/></g><g><path d="M633.564,1632.647l-319.073,49.461c-36.775,5.701-71.208-19.49-76.908-56.264l-93.579-603.669c-5.701-36.775,19.49-71.208,56.264-76.908l319.073-49.462c36.775-5.701,71.207,19.49,76.908,56.265l93.579,603.669c5.701,36.774-19.49,71.207-56.264,76.908Z" fill="#6bbd6e"/><path d="M281.088,1085.513c-.005-.007-41.048-33.447-41.001-33.478c0,0,35.357-43.343,35.357-43.343c14.006-18.391,45.663-9.263,47.171,13.683.684,6.74-1.202,13.743-5.823,19.408-.004.002-35.675,43.779-35.704,43.73Z" fill="#1d3f70"/><path d="M208.009,1132.925c-11.192-9.274-12.819-25.851-3.622-37.126l35.67-43.727c.045-.047,41.048,33.443,41.035,33.474-17.592,16.882-42.124,71.799-73.083,47.379Z" fill="#fff"/><path d="M518.86,1048.262c-.006-.006-41.048-33.447-41.001-33.477c0,0,35.357-43.343,35.357-43.343c14.006-18.391,45.663-9.263,47.171,13.682.684,6.74-1.202,13.743-5.823,19.408-.005.002-35.675,43.779-35.704,43.73Z" fill="#1d3f70"/><path d="M445.78,1095.673c-11.192-9.274-12.82-25.851-3.622-37.126l35.67-43.726c.045-.047,41.048,33.443,41.035,33.474-17.592,16.882-42.123,71.799-73.083,47.378Z" fill="#fff"/><path d="M355.903,1563.05c-.005-.007-41.048-33.447-41.001-33.478c0,0,35.357-43.343,35.357-43.343c14.006-18.391,45.663-9.263,47.171,13.682.685,6.74-1.202,13.743-5.823,19.408-.005.003-35.675,43.781-35.704,43.731Z" fill="#1d3f70"/><path d="M282.823,1610.462c-11.192-9.275-12.819-25.852-3.622-37.126l35.67-43.726c.045-.046,41.048,33.443,41.035,33.474-17.592,16.882-42.123,71.798-73.083,47.378Z" fill="#fff"/><path d="M593.674,1525.799c-.005-.006-41.048-33.447-41.001-33.477c0,0,35.357-43.343,35.357-43.343c14.006-18.391,45.663-9.263,47.171,13.682.684,6.74-1.202,13.743-5.824,19.408-.003.002-35.674,43.78-35.703,43.73Z" fill="#1d3f70"/><path d="M520.595,1573.211c-11.192-9.274-12.82-25.852-3.622-37.126l35.67-43.726c.045-.046,41.048,33.443,41.035,33.474-17.593,16.882-42.124,71.798-73.083,47.378Z" fill="#fff"/><path d="M330.965,1403.871c-.005-.006-41.048-33.447-41.001-33.478c0,0,35.357-43.343,35.357-43.343c14.006-18.391,45.664-9.263,47.171,13.682.685,6.74-1.202,13.743-5.823,19.408-.005.003-35.675,43.781-35.704,43.731Z" fill="#1d3f70"/><path d="M257.885,1451.283c-11.192-9.274-12.819-25.851-3.622-37.126l35.67-43.726c.045-.046,41.048,33.443,41.035,33.474-17.592,16.881-42.123,71.798-73.083,47.378Z" fill="#fff"/><path d="M568.736,1366.62c-.005-.006-41.048-33.447-41.001-33.478c0,0,35.357-43.343,35.357-43.343c14.006-18.391,45.663-9.263,47.171,13.683.684,6.74-1.202,13.743-5.823,19.408-.005.002-35.675,43.78-35.704,43.73Z" fill="#1d3f70"/><path d="M495.656,1414.032c-11.192-9.274-12.82-25.851-3.622-37.126l35.67-43.726c.045-.046,41.048,33.443,41.035,33.474-17.592,16.882-42.123,71.798-73.083,47.378Z" fill="#fff"/><path d="M306.026,1244.692c-.005-.006-41.048-33.447-41.001-33.478c0,0,35.357-43.343,35.357-43.343c14.006-18.391,45.663-9.263,47.171,13.683.684,6.74-1.202,13.743-5.823,19.408-.004.002-35.674,43.78-35.704,43.73Z" fill="#1d3f70"/><path d="M232.947,1292.104c-11.192-9.274-12.82-25.851-3.622-37.126l35.67-43.726c.045-.047,41.048,33.443,41.035,33.474-17.592,16.881-42.124,71.798-73.083,47.378Z" fill="#fff"/><path d="M543.798,1207.441c-.005-.006-41.048-33.447-41.001-33.478l35.357-43.343c14.006-18.391,45.663-9.263,47.171,13.683.684,6.74-1.202,13.743-5.823,19.408-.005.002-35.675,43.78-35.704,43.73Z" fill="#1d3f70"/><path d="M470.718,1254.853c-11.192-9.274-12.819-25.851-3.622-37.126l35.67-43.726c.045-.047,41.048,33.443,41.035,33.474-17.592,16.881-42.123,71.798-73.083,47.378Z" fill="#fff"/><path d="M468.624,1619.007c-5.517.864-10.69-2.907-11.554-8.424L356.783,970.461c-.864-5.517,2.907-10.691,8.424-11.555s10.69,2.908,11.555,8.425l100.286,640.122c.865,5.517-2.907,10.69-8.424,11.554Z" fill="#7689d6"/></g><g><path d="M1937.814,800.292l-11.022-85.252c-8.737-59.294-97.082-47.89-90.458,11.695l10.999,85.076c-38.467,21.209-63.04,64.816-56.795,111.657c0,0,101.838,787.674,101.838,787.67c20.583,146.227,247.891,116.418,230.578-29.808L2021.116,893.656c-5.815-47.411-40.841-82.446-83.302-93.364Z" fill="#6bbd6e"/><path d="M2028.765,1671.271l-47.855,6.187-123.275-953.48c-1.709-13.215,7.619-25.313,20.834-27.021s25.313,7.619,27.021,20.834l123.275,953.48Z" fill="#eef7ff"/><rect width="56.661" height="7.875" rx="0" ry="0" transform="matrix(.9917-.1282 0.1282 0.9917 1926.991046 884.900887)" fill="#1d3f70"/><rect width="28.331" height="7.875" rx="0" ry="0" transform="matrix(.9917-.1282 0.1282 0.9917 1930.954102 915.602896)" fill="#1d3f70"/><rect width="28.331" height="7.875" rx="0" ry="0" transform="matrix(.9917-.1282 0.1282 0.9917 1938.89009 977.018273)" fill="#1d3f70"/><rect width="28.331" height="7.875" rx="0" ry="0" transform="matrix(.9917-.1282 0.1282 0.9917 1946.830308 1038.413699)" fill="#1d3f70"/><rect width="28.331" height="7.875" rx="0" ry="0" transform="matrix(.9917-.1282 0.1282 0.9917 1954.76945 1099.831001)" fill="#1d3f70"/><rect width="28.331" height="7.874" rx="0" ry="0" transform="matrix(.9917-.1282 0.1282 0.9917 1962.705309 1161.244386)" fill="#1d3f70"/><rect width="28.331" height="7.874" rx="0" ry="0" transform="matrix(.9917-.1282 0.1282 0.9917 1970.647169 1222.644772)" fill="#1d3f70"/><rect width="28.331" height="7.874" rx="0" ry="0" transform="matrix(.9917-.1282 0.1282 0.9917 1978.581028 1284.060157)" fill="#1d3f70"/><rect width="28.331" height="7.874" rx="0" ry="0" transform="matrix(.9917-.1282 0.1282 0.9917 1986.522887 1345.460542)" fill="#1d3f70"/><rect width="56.661" height="7.875" rx="0" ry="0" transform="matrix(.9917-.1282 0.1282 0.9917 1934.930634 946.306263)" fill="#1d3f70"/><rect width="56.661" height="7.875" rx="0" ry="0" transform="matrix(.9917-.1282 0.1282 0.9917 1942.867109 1007.713673)" fill="#1d3f70"/><rect width="56.661" height="7.875" rx="0" ry="0" transform="matrix(.9917-.1282 0.1282 0.9917 1950.804968 1069.121059)" fill="#1d3f70"/><rect width="56.661" height="7.875" rx="0" ry="0" transform="matrix(.9917-.1282 0.1282 0.9917 1958.735193 1130.539643)" fill="#1d3f70"/><rect width="56.661" height="7.874" rx="0" ry="0" transform="matrix(.9917-.1282 0.1282 0.9917 1966.673052 1191.947028)" fill="#1d3f70"/><rect width="56.661" height="7.874" rx="0" ry="0" transform="matrix(.9917-.1282 0.1282 0.9917 1982.548771 1314.761798)" fill="#1d3f70"/><rect width="56.661" height="7.874" rx="0" ry="0" transform="matrix(.9917-.1282 0.1282 0.9917 1990.48763 1376.169183)" fill="#1d3f70"/><rect width="28.331" height="7.874" rx="0" ry="0" transform="matrix(.9917-.1282 0.1282 0.9917 1994.460747 1406.867927)" fill="#1d3f70"/><rect width="28.331" height="7.874" rx="0" ry="0" transform="matrix(.9917-.1282 0.1282 0.9917 2002.394606 1468.282312)" fill="#1d3f70"/><rect width="56.661" height="7.874" rx="0" ry="0" transform="matrix(.9917-.1282 0.1282 0.9917 1998.42549 1437.576568)" fill="#1d3f70"/><rect width="56.661" height="7.874" rx="0" ry="0" transform="matrix(.9917-.1282 0.1282 0.9917 2006.363349 1498.984953)" fill="#1d3f70"/><rect width="28.331" height="7.874" rx="0" ry="0" transform="matrix(.9917-.1282 0.1282 0.9917 2010.337466 1529.682697)" fill="#1d3f70"/><rect width="56.661" height="7.874" rx="0" ry="0" transform="matrix(.9917-.1282 0.1282 0.9917 2014.304208 1560.388338)" fill="#1d3f70"/><rect width="56.661" height="7.874" rx="0" ry="0" transform="matrix(.9917-.1282 0.1282 0.9917 1974.622828 1253.349131)" fill="#1d3f70"/><path d="M2023.382,1622.821c-18.512-141.725-33.207-265.286-33.207-265.286-1.685-13.721-16.649-22.01-30.26-18.958-12.772,1.651-21.83,13.022-20.229,25.404l34.289,265.214c-24.189,11.491-41.94,35.471-38.092,70.012c13.287,90.33,152.217,72.382,142.106-18.37-5.145-34.985-27.724-53.455-54.607-58.016Z" fill="#1d3f70"/></g><g><path d="M1378.45,1832.334c.005-.014,10.834-93.272,10.925-93.231c0,0,98.525,11.5,98.525,11.5c40.855,3.39,57.414,59.422,24.552,83.569-9.423,7.454-21.691,11.315-34.568,9.812-.007-.005-99.481-11.559-99.434-11.65Z" fill="#eb5648"/><path d="M1237.852,1768.326c3.186-25.579,26.413-43.828,52.042-40.835l99.397,11.602c.112.023-10.829,93.269-10.888,93.278-42.02-10.191-147.518,5.534-140.551-64.045Z" fill="#fff"/></g><g><path d="M1831.167,1738.855v42.582c0,34.362-59.333,62.218-132.526,62.218-36.916,0-70.308-7.087-94.339-18.521-23.613-11.234-38.189-26.666-38.189-43.697v-42.582h265.054Z" fill="#f39200"/><path d="M1831.168,1738.854c-1.242,74.455-249.132,90.258-264.534,5.554-.566-3.108-.725-6.116-.506-9.025c3.676-49.308,115.517-69.731,192.857-51.998c38.269,8.775,68.09,26.89,72.183,55.469Z" fill="#f9b233"/><path d="M1759.367,1683.54l-116.276,116.386c-3.016-.602-5.298-2.352-8.195-3.056l113.845-115.677c3.017.603,7.732,1.646,10.626,2.347Z" fill="#f39200"/></g><g><path d="M478.912,1721.121v42.582c0,34.362-59.333,62.218-132.526,62.218-36.916,0-70.308-7.087-94.339-18.521-23.613-11.234-38.189-26.666-38.189-43.697v-42.582h265.054Z" fill="#f39200"/><path d="M478.913,1721.12c-1.242,74.455-249.132,90.258-264.534,5.554-.566-3.108-.725-6.116-.506-9.025c3.676-49.308,115.516-69.731,192.857-51.997c38.269,8.775,68.09,26.889,72.183,55.468Z" fill="#f9b233"/><path d="M407.112,1665.806L290.836,1782.192c-3.016-.602-5.298-2.352-8.194-3.056l113.845-115.677c3.016.603,7.731,1.646,10.625,2.347Z" fill="#f39200"/></g><g><path d="M2516.93,1496.547c6.154,93.132,17.726,186.059,30.466,278.512c2.967,21.898,29.078,26.077,31.498,2.18c2.174-23.745,1.502-46.021,3.392-69.883c4.352-69.589,10.534-139.291,18.243-208.599c5.298-60.129-85.703-62.66-83.599-2.21Z" fill="#f99370"/><path d="M2584.09,1504.888l76.226,276.166c2.455,9.23,8.566,12.557,17.771,10.095c8.216-2.198,13.438.493,12.723-7.718l-24.346-293.015c-6.883-59.722-96.118-44.12-82.374,14.472Z" fill="#f99370"/><path d="M2547.396,1775.059c-35.515,1.705-45.857,13.823-48.767,21.945-.015.042-.03.085-.045.127-1.258,3.55,1.45,7.267,5.208,7.28l77.277.251c1.305-2.27,2.028-4.788,2.349-7.382c1.316-10.516-3.979-22.117-3.979-22.117s-16.022,4.135-32.043-.104Z" fill="#1d3f70"/><path d="M2498.629,1797.004l84.788.276c-.321,2.594-1.043,5.113-2.349,7.382l-77.277-.251c-3.757-.012-6.465-3.729-5.208-7.28l.046-.127Z" fill="#395b96"/><path d="M2652.962,1796.458v6.938h44.873v-6.938c0-12.429-10.047-22.503-22.431-22.503-12.395,0-22.442,10.074-22.442,22.503Z" transform="translate(.000001 0)" fill="#1d3f70"/><rect width="44.873" height="6.938" rx="0" ry="0" transform="translate(2652.960001 1796.46)" fill="#395b96"/><path d="M2671.847,1100.968c8.556,14.82,5.087,32.84-7.749,40.251-12.835,7.411-30.177,1.405-38.733-13.415-8.556-14.819-5.087-32.84,7.749-40.251c12.836-7.41,30.177-1.404,38.733,13.415Z" fill="#163260"/><path d="M2636.154,1116.471c0,0,30.24-11.911,33.115-55.165c3.017-45.391-41.408-54.514-59.303-41.61l26.188,96.775Z" fill="#163260"/><path d="M2579,1150c0,0-71.695,16.341-100.258,119.91l72.376,16.477L2579,1150Z" fill="#fff"/><path d="M2550.044,1177.775c0,0-21.983,20.472-26.639,33.274-4.655,12.802,12.664,13.578,12.664,13.578l13.975-46.852Z" fill="#d1e0f2"/><path d="M2618.435,1015.828c-43.769-12.324-72.88,51.278-51.88,84.417l51.88-84.417Z" fill="#163260"/><path d="M2666.394,1378.484h-136.628c-.705-54.026,5.53-108.642,18.22-161.107c7.573-30.619,11.928-55.102,41.105-71.463-2.079-18.132.757-44.281,3.286-55.052c1.33-5.817,5.493-10.217,10.171-11.677c11.969-4.156,26.138,6.041,22.455,19.531-1.085-.683-4.559,37.782-2.161,48.46c59.302,18.926,29.073,86.3,33.125,131.503.314,33.212,3.518,67.336,10.427,99.805Z" fill="#f99370"/><path d="M2625.327,1096.965c-.083.585-.187,1.178-.323,1.751-.782-.518-2.973,20.704-2.993,36.108-14.474,6.582-30.566,3.617-33.52,3.011-.832-21.069-1.677-52.909,14.058-58.65c11.299-4.832,24.767,5.466,22.778,17.78Z" fill="#e57d61"/><path d="M2648.071,1082.78c-2.431,15.08-7.521,32.079-19.433,42.054h-.02c-4.812,3.997-10.676,6.542-16.89,7.766-35.189,9.841-76.458-31.066-48.958-60.863c9.993-9.234,12.113-25.592,20.078-34.776c11.583-16.809,37.003-15.939,50.729-2.229c12.405,12.395,16.646,29.477,14.494,48.048Z" fill="#f99370"/><path d="M2590.518,1073.479c-1.38-2.621,2.768-4.728,4.071-2.068c1.38,2.622-2.768,4.729-4.071,2.068Z" transform="translate(0 0.000001)" fill="#c16256"/><path d="M2571.326,1070.253c-1.38-2.621,2.768-4.728,4.071-2.068c1.38,2.621-2.768,4.729-4.071,2.068Z" fill="#c16256"/><path d="M2578.583,1090.106c-4.179-.05-10.677-2.867-5.393-6.581c4.311-2.334,7.483-11.275,7.514-11.365c4.46-3.366-1.888,10.557-6.69,12.884-3.382,2.073,3.662,4.08,6.576,3.055.456-.146.941.104,1.086.559.248,1.551-2.011,1.333-3.093,1.448Z" fill="#c16256"/><path d="M2492.586,1664.344c0,0,101.861,56.181,217.58.472c0,0-.777-11.056-2.15-29.242-6.02-80.651-23.332-301.574-33.473-321.675-15.675,4.078-31.767,6.853-47.802,8.684-35.179,4.092-77.419,3.856-110.614.125-4.481,23.235-21.738,240.011-23.402,329.013-.098,4.564-.139,8.781-.139,12.623Z" fill="#3a72aa"/><path d="M2673.082,1308.805c0,0-67.028,59.406-156.963,13.9.122-.161,12.687-141.641,72.973-176.79c0,0-7.267,27.502,33.751,1.262c50.603,16.612,31.532,98.14,50.239,161.628Z" fill="#34753c"/><path d="M2516.115,1322.703c0,0,80.751,32.766,156.967-13.898l8.305,20.555c0,0-62.24,53.057-167.837,17.746l2.565-24.403Z" fill="#ce3932"/><path d="M2626.749,1322.584c.018.121.028.251.046.381c3.193,25.075,7.074,159.958,7.074,280.368c0,0,4.401.51,11.41.798c18.855.798,56.584.009,78.215-16.59c0,0-12.793-233.086-16.627-253.538-10.416-61.82-42.287-124.003-71.54-175.778-1.522-2.692-3.036-5.357-4.54-7.993-36.801,50.819-15.977,112.212-4.038,172.352Z" fill="#fff"/><path d="M2648.071,1082.78c-2.431,15.08-7.521,32.079-19.433,42.054h-.02c6.602-8.196,10.719-26.533,10.719-26.533l-3.12-8.156c-52.362-16.9-47.912-59.093-47.912-59.093c7.812-6.825,18.397-8.068,28.431-5.573c24.583,6.356,34.428,32.906,31.335,57.301Z" fill="#e57d61"/><path d="M2593.627,1027.215c0,0-3.931,41.703,42.93,58.726l16.818-9.283c16.402-32.179-13.576-79.674-59.748-49.443Z" fill="#163260"/><path d="M2486.314,1597.512c4.103,3.454,11.038,5.162,16.887,5.997v.009c5.691.817,10.351.817,10.351.817c8.727-59.843,24.862-323.147,36.559-382.442.046-.232.093-.464.139-.687c6.267-27.415,24.982-52.017,38.843-75.291-.464.148-.919.297-1.383.445-58.172,19.264-68.69,114.793-78.772,239.232-7.269,89.727-22.624,211.92-22.624,211.92Z" fill="#fff"/><path d="M2632.144,1366.812c0,0,45.425,8.735,76.813-12.786c0,0-.049-11.481-2.088-20.009s-75.468,26.306-75.468,26.306l.743,6.489Z" fill="#d1e0f2"/><path d="M2626.749,1322.584c.018.121.028.251.046.381c3.193,25.075,7.074,159.958,7.074,280.368c0,0,4.401.51,11.41.798l-8.81-274.241c-15.829-65.71-37.701-130.065-5.682-179.659c0,0-1.892-1.11-3.933-1.9-1.897-.734-3.952-1.151-4.01-1.156-36.802,50.82-8.034,115.269,3.905,175.409Z" fill="#d1e0f2"/><path d="M2503.201,1603.509v.009c5.691.817,10.351.817,10.351.817c8.727-59.843,24.862-323.147,36.559-382.442.046-.232.093-.464.139-.687c6.267-27.415,24.982-52.017,38.843-75.291-.464.148-.919.297-1.383.445-2.906.993-5.918,2.164-8.666,3.603-2.757,2.989-5.9,7.092-8.834,11.084-15.235,20.508-28.25,47.356-31.593,75.04-6.117,49.251-29.28,317.151-35.416,367.422Z" fill="#d1e0f2"/><path d="M2621.199,1222.979c0,0,4.43,17.231,18.491,36.983s36.895,60.29-13.129,61.28l1.963,15.081l55.874-6.679-11.316-77.086-51.883-29.579Z" fill="#d1e0f2"/><path d="M2647.103,1159.922c37.188,27.504,72.592,78.707,76.256,124.149c3.846,86.208-76.401,93.085-137.547,59.863-12.89-6.551-2.174-26.36,11.657-22.693c10.076,2.589,17.198,4.853,27.13,5.131c88.163,2.465,35.111-68.561.926-100.512-.001,0-3.288-83.38,21.578-65.938Z" fill="#f99370"/><path d="M2709.354,1348.148c-8.547,5.035-19.097,8.837-31.897,11.081c0,0-.155-28.178-19.415-37.396c0,0,17.938-24.846-6.683-58.311-13.366-18.167-30.803-30.469-33.675-54.484-1.734-14.491,13.102-58.807,13.102-58.807c15.001,3.929,55.18,18.487,81.807,59.991c30.804,48.021,42.772,110.826-3.239,137.926Z" fill="#fff"/><polygon points="2578.173,1376.684 2479.314,1369.087 2448.926,1199.859 2547.785,1207.456" fill="#1d3f70"/><path d="M2472.001,1309.907c-4.334.846-12.949-3.953-6.364-7.836c2.505-1.347,4.849-.146,6.881.67l-.207.011c6.685-.304,5.597,6.84-.31,7.155Z" fill="#f99370"/><path d="M2469.609,1303.362c-2.953-.339-6.253-1.436-7.656-4.268-1.885-4.555,7.502-7.138,9.163-3.111-.022-.088-.108-.092.084.006.187.093.549.195.794.231.007.003.124.015-.037-.001c6.744.959,2.918,7.875-2.348,7.143Z" fill="#f99370"/><path d="M2466.847,1296.589l-4.095-1.517c-5.883-2.752,1.041-8.48,5.158-6.526c0,0,4.094,1.517,4.094,1.517c5.883,2.752-1.039,8.48-5.157,6.526Z" fill="#f99370"/><path d="M2465.531,1290.323l-4.095-1.518c-5.883-2.752,1.04-8.48,5.158-6.526c0,0,4.095,1.517,4.095,1.517c5.883,2.754-1.04,8.481-5.158,6.527Z" fill="#f99370"/><path d="M2598.673,1332.181c-.021-.969-.318-1.865-.807-2.624c1.344-1.628,2.399-6.142.943-7.968-7.11-8.917-25.075-14.126-35.375-15.593-4.095-.584-8.242-.73-12.337-.484-3.987.148-4.057,6.41-.01,6.581c4.381.272,8.682,1.039,12.843,2.35-5.249-.563-10.672-.801-15.954-.637-3.894-.036-4.368,6.032-.456,6.554c7.418,1.057,14.769,2.966,21.84,5.43-6.974-.829-13.895-2.054-20.749-3.597-3.979-.948-5.614,5.26-1.646,6.373c7.489,2.298,15.097,4.202,22.797,5.668-3.9-.232-7.913-.659-11.787-1.149-3.912-.56-5.132,5.518-1.233,6.461c1.425.379,2.849.774,4.282,1.14c10.135,2.507,20.499,4.425,30.979,4.571c5,.557,8.498-5.522,5.226-9.434.918-.937,1.475-2.227,1.444-3.642Z" fill="#f99370"/><path d="M2617.155,1088.93c-.381,0-.709-.286-.754-.673-.048-.417.251-.794.668-.841l19.4-2.23c.414-.049.793.251.841.668s-.251.794-.668.842l-19.4,2.23c-.028.002-.058.004-.087.004Z" fill="#c16256"/><path d="M2624.01,1113.403c-.259,0-.511-.132-.653-.37-.215-.36-.097-.827.263-1.042l19.72-11.77c.36-.215.827-.097,1.042.263s.097.827-.263,1.042l-19.72,11.77c-.122.072-.256.107-.389.107Z" fill="#c16256"/><path d="M2657.649,1090.4c-3.71,17.139-24.637,12.714-21.093-4.459c3.711-17.139,24.638-12.715,21.093,4.459Z" fill="#f99370"/><path d="M2652.209,1093.942c-.569.007-1.002-.572-.826-1.117c3.266-9.117-.775-12.949-6.924-10.418-1.032.425-1.68-1.218-.629-1.609c7.197-2.941,13.105,1.616,9.204,12.532-.112.372-.454.612-.825.612Z" fill="#c16256"/><path d="M2644.145,1092.734c-2.684-.214,2.43-8.492,8.983-8.936.463-.03.888.329.919.805s-.329.888-.805.919c-6.702.693-7.511,6.989-9.097,7.212Z" fill="#c16256"/><path d="M2648.207,1098.306c.037,2.516-3.916,2.516-3.879,0-.037-2.517,3.916-2.517,3.879,0Z" fill="#f4d4be"/><path d="M2558.082,1077.968c0,0,14.433,12.323,60.353,7.973c0,0-1.325,17.541,7.089,26.961c0,0-23.368,18.233-49.85,13.981c0,0-18.385-8.219-21.989-24.694s4.397-24.221,4.397-24.221Z" fill="#edebff"/><path d="M2602.865,1069.243c-.256,0-.507-.13-.65-.366-4.95-8.159-11.956-8.748-12.026-8.753-.418-.03-.734-.392-.705-.81.028-.417.387-.73.807-.706.318.021,7.844.613,13.224,9.48.218.359.103.826-.256,1.043-.124.076-.259.112-.394.112Z" fill="#c16256"/><path d="M2572.122,1061.581c-.254,0-.501-.127-.646-.358-.222-.356-.113-.825.243-1.047.221-.137,5.471-3.349,11.333-2.036.409.092.667.498.575.907s-.498.668-.907.575c-5.261-1.179-10.148,1.813-10.198,1.844-.124.078-.263.115-.4.115Z" fill="#c16256"/><path d="M2601.436,1322.277c0,0,2.448,14.096-8.048,25.521c0,0,.894,2.768,5.854,2.657c0,0,8.794-11.898,7.825-26.721c0,0-2.243-2.769-5.631-1.457Z" fill="#1d3f70"/><path d="M2492.586,1664.344c0,0,101.861,56.181,217.58.472c0,0-.777-11.056-2.15-29.242-10.196,1.762-22.68,6.894-37.232,18.297-43.932,34.416-99.572,0-99.572,0s-34.708,18.505-78.487-2.15c-.098,4.564-.139,8.781-.139,12.623Z" fill="#3a72aa"/></g><g><path d="M1518.401,300.28c0,0,13.566-25.392,54.915-17.895c41.348,7.497,51.107,58.338,65.141,81.479c29.727,49.02,38.634,101.109,23.19,126.132-17.152,27.791-55.029,16.924-110.343,11.94-59.028-5.318-83.756-54.96-47.037-123.218l14.134-78.438Z" fill="#662948"/><path d="M1535.536,418.325c0,.015-.016.015-.031.045-.093.151-.343.544-.749,1.164-6.117,9.496-45.317,72.264-47.751,123.6-.266,5.791-1.202,11.507-2.715,17.117-3.277-.242-6.663-.484-10.097-.726-4.526-.318-9.129-.65-13.686-.983-14.06-.998-27.512-1.966-35.985-2.571-5.509-41.008,50.608-125.097,101.777-135.062c0-.015,0-.015,0-.015.016,0,.031-.015.047-.015c5.46-1.783,8.878-2.509,9.19-2.554Z" fill="#fff"/><path d="M1295.774,1035.848l82.217-.875c-.211-12.734-3.712-38.442-1.103-52.972-.002,0-35.491,4.437-35.491,4.437.984,6.98,3.169,22.117-8.787,25.74-15.49,4.693-32.354,3.25-42.021,14.798-2.509,3.88.459,8.922,5.185,8.872Z" fill="#f99370"/><path d="M1380.403,1027.276c-.305,2.697-1.043,5.323-2.411,7.698l-83.018.883c-4.037.043-7.002-3.776-5.705-7.48c3.055-8.657,13.856-21.289,52.1-23.635c0,0,13.38,3.043,34.741-.939.001,0,5.546,12.537,4.293,23.473Z" fill="#1d3f70"/><path d="M1313.676,1025.277c-.656,0-1.282-.377-1.551-1.001-3.125-7.24-8.637-9.407-8.87-9.496-4.405-6.49,8.159-1.972,11.972,8.238.48,1.042-.383,2.28-1.551,2.259Z" fill="#e8c0a6"/><path d="M1326.729,1023.609c-.711,0-1.371-.441-1.601-1.131-2.786-8.394-10.4-12.206-10.477-12.243-4.017-7.558,10.602.421,13.677,11.245.364,1.028-.484,2.145-1.599,2.129Z" fill="#e8c0a6"/><path d="M1341.58,1021.679c-.689,0-1.335-.414-1.582-1.078-3.238-8.713-10.546-13.399-10.62-13.445-3.117-7.932,10.185,1.584,13.784,12.34.411,1.035-.445,2.202-1.582,2.183Z" fill="#e8c0a6"/><path d="M1289.317,1028.245l91.087-.969c-.305,2.697-1.043,5.323-2.411,7.698l-83.018.883c-4.093.049-7.071-3.89-5.658-7.612Z" fill="#395b96"/><path d="M1556.24,731.693c-40.467-1.648-110.962-23.244-141.368,26.641-33.289,54.482-25.14,170.064-21.773,225.92-44.424,13.861-68.307,0-68.307,0-18.925-114.34-81.254-374.783,127.167-338.646-.004-.008,139.771-.008,139.771-.008c23.379,46.177,2.474,85.321-35.49,86.093Z" fill="#3a72aa"/><path d="M1394.366,1035.843l82.217-.874c-.211-12.734-3.712-38.442-1.103-52.972-.003,0-35.49,4.441-35.49,4.441.984,6.98,3.447,22.117-8.787,25.735-15.523,4.591-32.354,3.25-42.021,14.798-2.51,3.88.458,8.922,5.184,8.872Z" fill="#f99370"/><path d="M1478.995,1027.271c-.305,2.698-1.043,5.323-2.411,7.698l-83.018.883c-4.037.043-7.002-3.776-5.705-7.48c3.055-8.657,13.856-21.289,52.1-23.635c0,0,13.398,3.463,34.759-.519.001,0,5.528,12.117,4.275,23.053Z" fill="#1d3f70"/><path d="M1412.267,1025.272c-.657,0-1.282-.377-1.552-1.001-3.125-7.24-8.637-9.407-8.87-9.496-4.405-6.49,8.159-1.972,11.972,8.238.481,1.043-.381,2.281-1.55,2.259Z" fill="#e8c0a6"/><path d="M1425.321,1023.604c-.712,0-1.372-.441-1.601-1.131-2.786-8.394-10.4-12.206-10.476-12.243-4.017-7.558,10.602.421,13.678,11.245.362,1.029-.486,2.145-1.601,2.129Z" fill="#e8c0a6"/><path d="M1494.288,463.443c0,0-30.957,25.845-41.1,59.527-8.189,27.193,20.054,19.045,25.101,4.117s15.999-63.644,15.999-63.644Z" fill="#d1e0f2"/><path d="M1440.172,1021.674c-.69,0-1.335-.414-1.583-1.078-3.239-8.713-10.546-13.399-10.62-13.445-3.117-7.932,10.185,1.584,13.784,12.34.412,1.035-.444,2.202-1.581,2.183Z" fill="#e8c0a6"/><path d="M1387.908,1028.24l91.087-.969c-.305,2.698-1.043,5.323-2.411,7.698l-83.018.883c-4.092.049-7.07-3.89-5.658-7.612Z" fill="#395b96"/><path d="M1463.337,645.6l-11.956,84.44c-52.262,19.945-56.026,73.277-60.795,133.259-24.201-92.671-22.098-186.394,72.751-217.699Z" fill="#3a72aa"/><path d="M1608.906,735.608c-42.351,25.261-84.645-2.302-114.429,55.96-24.037,51.012-10.559,148.493-3.957,192.686-44.425,13.861-68.308,0-68.308,0-26.341-98.633-86.584-327.853,83.651-338.65c46.614-1.438,107.867-1.043,149.067-3.448-.001,0,11.438,59.177-46.024,93.452Z" fill="#3a72aa"/><path d="M1655.754,618.826c3.611,24.981-1.626,54.025-1.626,54.025-55.031-16.951-105.06-18.519-188.652-29.832c52.793-153.226-69.487-46.014,70.083-224.709.335.027,34.675-.603,34.675-.603c39.241,28.597,64.396,70.138,85.52,201.119Z" fill="#34753c"/><path d="M1535.505,418.37c-.093.151-.343.544-.749,1.164-6.117,9.496-45.317,72.264-47.751,123.6-.266,5.791-1.202,11.507-2.715,17.117-12.921,48.463-68.023,90.243-106.505,115.601-42.93,28.307-57.271,87.415-51.435,144.648c0,0-3.418.514-8.396.801-7.287.439-17.915.408-26.123-2.344c0,0-10.377-68.468,9.426-110.671c19.787-42.218,63.341-65.898,117.007-81.85c2.013-.59,3.917-1.24,5.743-1.92c21.02-7.848,30.383-21.185,34.253-35.837v-.015c2.606-9.859,2.715-20.323,2.247-30.121-.39-8.211-1.217-15.968-1.342-22.5-.453-23.15,18.695-56.523,56.257-97.062c6.194-6.684,12.889-13.55,20.083-20.611Z" fill="#fff"/><path d="M1664.856,637.021c-.968,19.915-3.464,39.27-8.521,55.812-13.218,43.246-56.927,56.114-101.199,70.268s-45.504,57.4-45.504,57.4c-19.007,4.597-44.287,2.873-58.223,1.346-6.32-.696-10.3-1.346-10.3-1.346c9.02-109.719,71.706-132.294,105.179-162.325s5.836-91.452,6.335-135.213c.468-42.384,16.557-101.432,17.571-105.077.015-.06.031-.121.047-.181c2.45.938,4.838,1.905,7.163,2.934c64.168,27.868,81.615,84.739,84.689,124.946c1.983,25.72,4.355,59.319,2.763,91.436Z" fill="#fff"/><path d="M1568.666,463.022c-4.089,21.971-7.88,46.467-7.412,59.94.968,28.322,19.506,89.29,8.38,122.632-11.127,33.342-54.696,39.526-84.97,81.729-30.274,42.218-33.255,94.522-33.255,94.522-6.32-.696-10.3-1.346-10.3-1.346c9.02-109.719,71.706-132.294,105.179-162.325s5.836-91.452,6.335-135.213c.468-42.384,16.557-101.432,17.571-105.077.015-.06.031-.121.047-.181c2.575.045,5.15.181,7.725.423-.109.469-.312,1.331-.562,2.51-1.497,6.61-5.227,23.576-8.738,42.386Z" fill="#d1e0f2"/><path d="M1535.536,418.325c0,.015-.016.015-.031.045-.093.151-.343.544-.749,1.164-6.117,9.496-45.317,72.264-47.751,123.6-.266,5.791-1.202,11.507-2.715,17.117-12.921,48.463-68.023,90.243-106.505,115.601-42.93,28.307-57.271,87.415-51.435,144.648c0,0-3.418.514-8.396.801-10.533-72.294,19.023-130.011,43.46-145.964c13.967-9.118,40.62-30.862,62.592-50.822c16.463-14.955,30.305-28.911,34.253-35.837v-.015c5.415-9.526,11.564-19.597,15.933-29.138c3.028-6.623,5.197-12.989,5.665-18.735c1.108-14.002.562-35.323,14.435-63.116c6.913-13.866,14.872-27.989,21.13-38.695c6.305-10.781,10.877-18.07,10.877-18.07l.047-.03c5.46-1.783,8.878-2.509,9.19-2.554Z" fill="#d1e0f2"/><polygon points="1317.95,654.364 1502.943,654.364 1466.111,522.97 1282.236,522.97" fill="#163260"/><rect width="184.993" height="8.923" rx="0" ry="0" transform="translate(1317.95 653.714)" fill="#234270"/><polygon points="1463.331,522.97 1469.95,522.97 1506.025,653.714 1593.817,653.714 1593.817,662.636 1499.863,662.636 1499.863,654.655" fill="#0b274f"/><path d="M1536.392,406.405l-.836,11.904c0,0-.641,6.856.202,12.325c1.555,10.085,12.155,13.325,19.381,7.336c6.753-5.598,15.095-20.262,15.095-20.262s-.054-6.888.59-11.687l-34.432.384Z" fill="#f99370"/><path d="M1577.546,372.331c-.141.566-.304,1.138-.498,1.686-.741-.583-4.957,19.225-6.487,34.326-14.776,8.387-31.872,7.272-34.801,6.396.789-22.343,2.728-55.777,20.482-62.006c11.905-3.663,24.524,7.713,21.304,19.598Z" fill="#e57d61"/><path d="M1532.777,298.727c-44.616-5.186-51.694,63.057-21.372,88.167l21.372-88.167Z" fill="#662948"/><path d="M1585.376,346.814c2.152,14.902,2.292,32.381-6.295,45.226l-.019.006c-23.475,37.201-101.147,13.218-79.866-30.894c3.127-5.63,4.889-12.474,5.122-18.28.702-60.918,74.844-48.134,81.058,3.942Z" fill="#f99370"/><path d="M1526.676,354.748c-2.125-2.067,1.274-5.254,3.336-3.127c2.125,2.067-1.274,5.254-3.336,3.127Z" fill="#c16256"/><path d="M1507.064,357.276c-2.125-2.067,1.274-5.254,3.336-3.127c2.126,2.067-1.274,5.254-3.336,3.127Z" fill="#c16256"/><path d="M1518.747,374.17c-3.923.606-9.61-.381-5.898-4.94c3.488-3.448,3.894-12.785,3.897-12.878.025-1.093,1.816-1.046,1.756.064-.016.41-.436,10.089-4.401,14.005-.449.445-.916,1.055-.586,1.434.934,1.07,5.351,1.248,7.891-.465.389-.268.944-.175,1.221.212.658,1.778-2.513,2.161-3.88,2.568Z" fill="#c16256"/><path d="M1585.376,346.814c2.152,14.902,2.293,32.381-6.295,45.226l-.019.006c3.961-9.63,2.474-28.087,2.474-28.087l-5.473-6.774c-55.931-.725-64.155-41.618-64.155-41.618c24.58-31.997,70.55-3.102,73.468,31.247Z" fill="#e57d61"/><path d="M1516.196,310.431c0,0,8.317,40.262,58.939,42.698l13.562-13.617c6.305-35.048-36.688-70.932-72.501-29.081Z" fill="#662948"/><path d="M1596.962,351.209c1.796,17.046-20.428,19.001-21.827,1.918-1.796-17.044,20.428-18.999,21.827-1.918Z" fill="#f99370"/><path d="M1591.728,346.798c0,0,0-.001-.001-.001-2.263-6.756-15.684.46-9.972.715.023-.299,5.968-3.75,7.821-.755-5.859,2.679-7.812,13.263-4.42,9.842.006-.064.713-6.091,5.321-8.369c2.288,15.394,4.368,4.714,1.251-1.432Z" fill="#c16256"/><path d="M1590.153,361.391c.789,2.358-3.051,3.504-3.768,1.125-.788-2.359,3.052-3.505,3.768-1.125Z" fill="#f4d4be"/><path d="M1391.715,965.068c.727,11.964,1.384,19.186,1.384,19.186-44.424,13.861-68.307,0-68.307,0s-.906-6.111-2.822-16.463c.532.258,28.131,13.672,69.745-2.723Z" fill="#3a72aa"/><path d="M1490.52,984.254c-44.425,13.861-68.308,0-68.308,0s-1.492-5.542-4.009-15.108c0,0,24.494,12.344,69.995,0c1.343,9.458,2.322,15.108,2.322,15.108Z" fill="#3a72aa"/><path d="M1533.962,347.842c-.215,0-.431-.066-.612-.204-5.584-4.234-10.662-2.858-10.875-2.796-.527.151-1.079-.14-1.235-.65-.156-.509.139-1.043.664-1.197.249-.075,6.242-1.753,12.672,3.124.433.329.509.935.171,1.354-.197.242-.489.369-.785.369Z" fill="#c16256"/><path d="M1504.746,350.168c-.192,0-.386-.053-.556-.165-.456-.298-.576-.898-.268-1.338.13-.187,3.23-4.569,8.4-4.376.549.021.976.469.955,1.001-.021.533-.48.957-1.033.925-4.063-.126-6.647,3.492-6.673,3.528-.192.276-.506.425-.825.425Z" fill="#c16256"/><path d="M1526.236,383.276c-1.301,0-2.442-.448-3.165-1.356-1.544-1.935-.524-5.121,2.323-7.252c2.846-2.13,6.285-2.286,7.828-.351c0,0,0,0,0,0c1.543,1.935.523,5.121-2.323,7.252-1.511,1.132-3.189,1.707-4.663,1.707Zm3.81-8.374c-.987,0-2.241.397-3.436,1.292-2.063,1.546-2.691,3.637-1.965,4.548.726.91,2.973.848,5.036-.697c2.063-1.546,2.691-3.637,1.966-4.548v0c-.305-.384-.882-.595-1.601-.595Z" fill="#c16256"/><path d="M1630.939,446.777c42.645,30.971,65.422,86.708,54.158,137.391-4.316,28.471-22.855,55.549-51.855,63.608-14.318,5.549-81.109,14.473-77.997-8.501c1.059-5.512,6.103-7.541,10.99-9.013c8.052-2.751,16.352-5.791,24.03-9.173c13.749-6.915,31.427-13.394,34.42-28.353c6.373-34.928-8.396-69.076-35.331-91.877.048.027-.127-.105.271.176-36.503-26.347,4.593-80.273,41.314-54.258Z" fill="#f99370"/><path d="M1664.856,637.021c-2.653,1.557-5.446,3.07-8.349,4.521-21.114,10.6-42.29,12.263-58.098,12.823c0,0,3.652-22.863-13.389-32.268c80.397-59.214-5.1-93.696-11.639-151.633-2.557-22.65,4.586-52.335,4.586-52.335c98.234,8.996,197.638,154.174,86.889,218.892Z" fill="#fff"/><path d="M1514.497,653.714c0,0,8.24-27.914,57.424-24.698l10.3,24.698h-67.724Z" fill="#f99370"/><path d="M1609.823,653.594c-7.033.759-11.41.772-11.41.772s3.649-22.858-13.396-32.275c0,0,4.195-2.642,9.676-7.331.001.002,18.682,13.294,15.13,38.834Z" fill="#d1e0f2"/><path d="M1517.183,653.432c-8.741.26,23.077-20.891,32.568-15.719.078.746-.481,1.412-1.249,1.487-17.906,1.813-29.811,14.179-31.319,14.232Z" fill="#e57d61"/><path d="M1530.66,653.911c-6.632-2.744,13.971-7.445,24.172-10.12.751-.154,1.496.32,1.653,1.053.156.733-.33,1.449-1.087,1.601-10.866,2.168-23.643,7.351-24.738,7.466Z" fill="#e57d61"/><path d="M1592.839,621.513c-.689,0-1.373-.294-1.835-.858-.804-.981-.635-2.408.378-3.187c31.357-24.115,28.603-54.605,19.101-69.215-10.351-15.916-28.261-45.03-28.44-45.321-.661-1.076-.298-2.468.812-3.11c1.111-.642,2.546-.288,3.209.787.179.292,18.06,29.357,28.38,45.225c10.402,15.994,13.619,49.216-20.151,75.187-.431.331-.944.492-1.454.492Z" fill="#d1e0f2"/><path d="M1605.652,654.055c-1.213,0-2.24-.907-2.332-2.098-.098-1.249.869-2.338,2.158-2.432.382-.028,38.44-2.915,55.964-13.128c1.106-.644,2.545-.3,3.213.775.666,1.074.309,2.467-.799,3.113-18.479,10.768-56.419,13.646-58.025,13.763-.061.005-.121.007-.179.007Z" fill="#d1e0f2"/></g><g><path d="M887,1115v614c0,19.33,66.71,35,149,35c82.291,0,149-15.67,149-35v-614h-298Z" fill="#8a9edd"/><path d="M1149.36,1091c-29.218-7.422-69.224-12-113.36-12s-84.142,4.578-113.36,12h-48.64v30c0,23.196,72.53,42,162,42s162-18.804,162-42v-30h-48.64Z" fill="#23659b"/><ellipse rx="162" ry="42" transform="translate(1036 1091)" fill="#3a72aa"/><path d="M1017.602,1683.373c0,0-46.683-3.479-46.683-3.479-.008-.003-.03-.002-.04-.003l-47.096-3.51c-12.144-.905-22.736,8.158-23.733,20.281-1.912,32.946,47.522,23.45,67.536,27.426.006-.001.022-.02.021-.019-.02.044,47.112,3.529,47.115,3.531c6.102.455,11.81-1.608,16.106-5.308c15.019-12.033,6.105-38.126-13.226-38.919Z" fill="#7689d6"/><path d="M1132.89,1674.917c0,0-45.129,12.443-45.129,12.443-.009,0-.029.009-.039.01l-45.528,12.553c-11.74,3.236-18.661,15.337-15.519,27.089c9.292,31.666,52.643,6.079,72.827,3.084.006-.003.014-.026.014-.024-.004.048,45.549-12.54,45.553-12.539c5.898-1.626,10.579-5.49,13.378-10.422c10.091-16.388-7.088-37.957-25.557-32.194Z" fill="#7689d6"/><path d="M1118.452,1626.485c-15.668-29.044-52.757,4.989-71.879,12.112-.005.004-.008.028-.008.027-.006-.048-41.951,21.728-41.955,21.729-5.432,2.816-9.208,7.568-10.921,12.973-6.465,18.127,14.82,35.656,31.688,26.182c0,0,41.56-21.546,41.559-21.546.009-.001.026-.015.036-.018l41.927-21.737c10.811-5.605,15.069-18.879,9.553-29.722Z" fill="#7689d6"/><path d="M989.656,1617.278c-.006,0-.026.014-.025.012.03-.037-44.744-15.164-44.747-15.167-5.795-1.962-11.838-1.388-16.921,1.125-17.545,7.909-15.419,35.401,3.104,40.988l44.341,15.009c.007.005.029.009.038.013l44.734,15.142c11.534,3.905,24.052-2.231,28.041-13.724c10.067-31.427-40.174-34.557-58.565-43.398Z" fill="#7689d6"/><path d="M1107.093,1604.776c-.006-.001-.028.009-.027.008.036-.032-41.498-22.581-41.5-22.584-5.375-2.922-11.427-3.388-16.865-1.781-18.638,4.798-21.236,32.249-3.94,40.917l41.128,22.359c.006.006.027.014.035.019l41.492,22.557c10.698,5.817,24.08,1.908,29.972-8.734c15.285-29.248-33.683-40.91-50.295-52.761Z" fill="#7689d6"/><path d="M1056.229,1549.077c0,0-44.071,15.785-44.071,15.786-.009,0-.028.011-.038.013l-44.461,15.925c-11.464,4.106-17.461,16.69-13.448,28.174c11.636,30.881,52.95,2.122,72.854-2.375.005-.004.012-.027.012-.025c0,.048,44.483-15.914,44.487-15.913c5.76-2.063,10.138-6.267,12.561-11.394c8.834-17.097-9.911-37.32-27.896-30.191Z" fill="#7689d6"/><path d="M1133.356,1544.763c-.006-.003-.03.001-.028,0c.044-.02-32.874-33.931-32.875-33.935-4.259-4.393-9.896-6.643-15.566-6.73-19.22-.98-29.889,24.446-15.965,37.879c0,0,32.587,33.609,32.587,33.609.004.008.021.021.028.029l32.875,33.906c8.476,8.743,22.414,9.003,31.213.603c23.312-23.358-19.949-49.095-32.269-65.361Z" fill="#7689d6"/><path d="M1111.063,1470.959c0,0-43.559,17.147-43.559,17.147-.009.001-.028.012-.037.015l-43.945,17.299c-11.331,4.46-16.934,17.225-12.566,28.578c12.59,30.505,52.99.476,72.745-4.637.005-.004.011-.027.011-.026.001.048,43.967-17.288,43.971-17.288c5.693-2.241,9.939-6.579,12.201-11.778c8.299-17.364-11.065-36.994-28.821-29.31Z" fill="#7689d6"/><path d="M1039.005,1468.938c0,0-44.851-13.41-44.851-13.41-.007-.005-.029-.008-.038-.012l-45.248-13.529c-11.667-3.489-23.956,3.092-27.531,14.72-8.933,31.769,41.387,33.096,60.083,41.272.007,0,.026-.015.025-.014-.029.038,45.259,13.551,45.262,13.554c5.862,1.753,11.88.963,16.87-1.731c17.249-8.532,14.139-35.93-4.572-40.85Z" fill="#7689d6"/><path d="M993.129,1496.705c0,0-38.309,26.904-38.309,26.904-.008.002-.024.018-.033.023l-38.648,27.142c-9.966,6.998-12.412,20.722-5.497,30.731c19.407,26.692,51.618-11.991,69.617-21.604.004-.005.004-.029.005-.028.012.047,38.673-27.137,38.677-27.137c5.007-3.516,8.114-8.73,9.091-14.316c3.985-18.827-19.451-33.357-34.903-21.715Z" fill="#7689d6"/><path d="M1163.557,1476.192c0,0-31.061-35.024-31.061-35.024-.003-.008-.02-.022-.026-.03l-31.336-35.334c-8.079-9.111-21.992-9.991-31.155-1.99-24.328,22.298,17.747,49.933,29.332,66.73.005.004.029.001.028.002-.045.017,31.333,35.359,31.334,35.362c4.06,4.578,9.591,7.076,15.251,7.415c19.158,1.834,30.946-23.093,17.633-37.131Z" fill="#7689d6"/><path d="M1030.211,1375.314c-11.51-30.929-52.941-2.339-72.863,2.077-.005.004-.012.027-.012.025.001-.048-44.548,15.731-44.552,15.731-5.768,2.04-10.164,6.225-12.607,11.342-8.905,17.061,9.757,37.36,27.772,30.305c0,0,44.135-15.605,44.135-15.605.009,0,.028-.011.038-.013l44.526-15.743c11.482-4.06,17.53-16.619,13.563-28.119Z" fill="#7689d6"/><path d="M1105.452,1369.674c13.809-29.973-35.679-39.182-52.86-50.191-.006-.001-.028.011-.026.009.035-.033-42.571-20.487-42.573-20.49-5.514-2.651-11.582-2.815-16.932-.939-18.376,5.719-19.605,33.266-1.898,41.062c0,0,42.19,20.284,42.19,20.284.006.006.027.012.036.017l42.564,20.463c10.973,5.278,24.143.708,29.499-10.215Z" fill="#7689d6"/><path d="M1167.206,1381.941c-24.837-21.73-47.68,23.127-63.103,36.488-.003.006.002.029.001.028-.022-.043-31.701,35.029-31.705,35.03-4.104,4.538-5.979,10.311-5.694,15.974.283,19.243,26.355,28.22,38.845,13.445c0,0,31.398-34.721,31.398-34.722.007-.004.02-.023.027-.03l31.676-35.029c8.169-9.031,7.514-22.955-1.445-31.184Z" fill="#7689d6"/><path d="M1103.939,1436.231c-6.825-32.287-52.018-10.117-72.373-8.686-.006.003-.016.025-.016.023.008-.047-46.38,8.993-46.384,8.992-6.006,1.167-10.971,4.659-14.141,9.36-11.323,15.562,4.144,38.39,23.002,34.068c0,0,45.953-8.929,45.953-8.929.009.001.03-.006.039-.007l46.36-9.008c11.954-2.322,19.788-13.853,17.56-25.813Z" fill="#7689d6"/><path d="M1049.633,1586.292c13.627-30.056-35.917-38.964-53.164-49.869-.007-.001-.028.011-.026.01.034-.034-42.695-20.228-42.697-20.231-5.53-2.617-11.599-2.745-16.938-.836-18.341,5.831-19.402,33.385-1.648,41.073c0,0,42.313,20.027,42.313,20.027.006.006.028.012.036.017l42.687,20.204c11.006,5.21,24.148.56,29.437-10.395Z" fill="#7689d6"/><path d="M1122.524,1345.787c-23.48-23.189-48.989,20.207-65.19,32.613-.003.006.001.03,0,.028-.02-.044-33.758,33.052-33.761,33.053-4.37,4.282-6.59,9.931-6.648,15.601-.879,19.225,24.603,29.76,37.962,15.765c0,0,33.437-32.763,33.437-32.763.008-.004.021-.022.029-.028l33.733-33.053c8.698-8.523,8.885-22.462.438-31.216Z" fill="#7689d6"/></g><g><path d="M640.309,1767.543c10.524-13.892-2.276-77.399-1.83-93.632h47.795c.541,16.187-11.461,79.841-1.427,93.603c2.843,4.968-47.394,4.914-44.538.029Z" fill="#f99370"/><path d="M874.307,1786.661h-83.658c-4.957,0-8.841-4.255-8.388-9.192.795-8.649,2.657-20.53,2.06-26.034.332-5.065-6.964-70.731-7.507-77.525h52.7l-8.504,67.797c-1.003,7.995,3.77,15.612,11.422,18.136c10.337,3.41,22.109,4.889,29.886,6.892c7.508,1.896,14.258,4.514,17.63,10.283c2.497,4.272-.694,9.643-5.641,9.643Z" fill="#f99370"/><path d="M779.469,1777.836l.011.093c.609,4.986,4.843,8.733,9.866,8.733h84.287c4.834,0,8.371-4.691,6.897-9.295-4.443-13.879-18.364-22.475-57.835-25.932-.002.002-14.515,4.321-38.376.002.001,0-6.385,13.834-4.85,26.399Z" fill="#395b96"/><path d="M644.19,1786.662h36.756c5.148,0,9.351-4.264,9.115-9.408-1.587-34.601-53.636-34.884-54.988.034-.199,5.131,3.982,9.374,9.117,9.374Z" fill="#395b96"/><path d="M853.802,1774.719c.741,0,1.443-.443,1.738-1.171c3.392-8.367,9.508-10.927,9.766-11.032c2.254-.87.859-4.407-1.384-3.485-.318.125-7.833,3.183-11.857,13.109-.516,1.197.441,2.604,1.737,2.579Z" fill="#e8c0a6"/><path d="M839.233,1772.961c.8,0,1.542-.517,1.79-1.321c2.982-9.632,11.44-14.169,11.525-14.214c2.162-1.092.408-4.478-1.733-3.326-.403.21-9.917,5.26-13.375,16.431-.387,1.18.556,2.449,1.793,2.43Z" fill="#e8c0a6"/><path d="M822.651,1770.923c.776,0,1.502-.485,1.771-1.26c3.519-10.116,11.585-15.54,11.666-15.594c2.045-1.307-.057-4.504-2.068-3.128-.375.248-9.208,6.191-13.139,17.49-.439,1.189.51,2.513,1.77,2.492Z" fill="#e8c0a6"/><path d="M649.059,1762.65c14.308-8.085,27.031,2.511,29.089-1.102c1.681-3.799-17.058-9.493-30.038-2.392-1.645.892-.889,3.565.949,3.494Z" fill="#e8c0a6"/><path d="M880.675,1777.836h-101.206l.011.093c.609,4.986,4.843,8.733,9.866,8.733h85.177c4.496,0,7.703-4.435,6.207-8.674-.019-.051-.037-.101-.055-.152Z" fill="#4867aa"/><path d="M643.44,1786.662h38.263c4.748,0,8.6-3.931,8.401-8.674-.002-.05-.004-.101-.007-.151h-55.052c-.003.062-.005.123-.007.184-.176,4.731,3.667,8.641,8.402,8.641Z" fill="#4867aa"/><path d="M768.653,922.802c0,0,4.816-27.152-19.014-35.941L734.588,898.17l34.065,24.632Z" fill="#8c4225"/><path d="M809.891,1125.622c66.892,50.377,171.565,35.295,210.279-37.981l-9.8-20.368c-112.225,48.239-156.4-46.275-247.453-51.716l18.341,23.398c0,.001,27.058,85.063,28.633,86.667Z" fill="#fff"/><path d="M632.705,1738.535c0,0,40.224,9.771,60.946-.728c10.786-67.638,40.727-255.971,51.156-385.028.399,7.525,22.308,311.021,26.478,385.028c14.308,4.787,43.075,10.562,59.175-1.033c7.232-77.908,30.453-334.408-4.526-543.896c0,0-95.857,10.663-170.716-11.958-20.607,66.448-26.065,477.872-22.513,557.615Z" fill="#3a72aa"/><path d="M752.512,1013.782c.663-20.663,3.231-61.641-13.537-67.135-12.043-4.181-26.299,6.078-22.594,19.65c1.092-.687,4.587,38.014,2.175,48.755-31.781,9.534,63.803,40.885,33.956-1.27Z" fill="#f99370"/><path d="M716.057,964.536c.083.588.188,1.185.325,1.761.787-.521,2.991,20.83,3.011,36.327c14.563,6.622,30.417,4.027,33.388,3.417.812-21.39,2.118-53.42-13.807-59.393-11.368-4.862-24.918,5.499-22.917,17.888Z" fill="#e57d61"/><path d="M693.174,950.263c2.445,15.172,7.567,32.273,19.551,42.31h.02c17.469,13.228,43.059,11.819,60.828-2.765h.01c13.713-12.812,18.05-30.063,10.833-43.353-4.721-7.834-13.416-14.727-15.762-23.655-20.349-59.394-84.117-26.177-75.48,27.463Z" fill="#f99370"/><path d="M751.078,940.908c1.388-2.637-2.785-4.757-4.095-2.08-1.389,2.636,2.784,4.756,4.095,2.08Z" fill="#c16256"/><path d="M770.386,937.661c1.388-2.637-2.785-4.757-4.095-2.08-1.389,2.637,2.785,4.757,4.095,2.08Z" fill="#c16256"/><path d="M693.178,950.265c2.445,15.172,7.567,32.274,19.551,42.31h.02c.994.826,1.674,1.226,2.757,1.924-9.121-9.052-14.043-28.097-14.043-28.097l2.145-16.442c14.72-14.917,8.383-31.693,8.383-31.693c24.618,6.907,32.913-8.285,32.913-8.285c7.783,1.004,15.968-3.011,15.968-3.011-28.004-40.514-76.362,2.582-67.694,43.294Z" fill="#e57d61"/><path d="M700.727,910.724c10.465,4.138,14.139,28.444-10.59,45.06-.001-.001-11.981-40.044,10.59-45.06Z" fill="#8c4225"/><path d="M1000.978,1071.126c-4.179,20.576,14.021,25.365,14.021,25.365c3.47-5.211,5.176-8.862,5.172-8.85l-9.8-20.368c-.001.001-4.326,1.456-9.393,3.853Z" fill="#d1e0f2"/><path d="M763.084,957.636c4.204-.05,10.742-2.885,5.426-6.621-4.336-2.349-7.527-11.344-7.559-11.435-.354-1.063-2.031-.489-1.641.574.139.396,3.446,9.72,8.372,12.388c3.404,2.085-3.688,4.106-6.616,3.073-.461-.147-.947.106-1.094.562-.248,1.562,2.023,1.342,3.112,1.459Z" fill="#c16256"/><path d="M645.609,1274.849c52.05,21.641,181.694,23.399,194.268,8.076c24.586-60.699-20.784-222.509-76.954-267.36-.494-.137-6.833-1.757-10.395-1.763.246.994,6.535,27.157-33.974,1.249-.231.274-9.883.445-12.454,2.219c2.91,42.322-79.412,211.244-60.491,257.579Z" fill="#34753c"/><path d="M812.548,1051.875l25.159,90.07c39.239,21.627,106.303,17.19,137.448-7.143-111.499,43.191-120.597-42.16-161.102-82.927h-1.505Z" fill="#d1e0f2"/><path d="M704.805,887.368C713,877.647,727.92,872.894,731.337,863c0,0,5.063,9.479,4.474,20.07c3.97-4.448,7.61-9.318,10.46-14.543c4.023,4.06,6.173,8.711,6.82,13.487c12.771-2.781,23.968,2.34,23.968,2.34-6.563,18.546-21.873,22.63-33.881,22.699-9.965,9.536-25.877,13.862-41.267,4.418l-14.825,19.163c-21.067-36.515,17.719-43.266,17.719-43.266Z" fill="#8c4225"/><path d="M771.284,1737.807c.334-6.504-26.478-385.028-26.478-385.028s12.663,6.76,15.674,46.954c2.618,34.947,18.237,267.176,22.27,327.221c27.506,6.148,48.955-3.749,48.955-3.749-.836,8.797-1.247,13.569-1.247,13.569-13.17,9.486-34.814,7.346-50.088,3.633-3.708-.86-6.592-1.777-8.043-2.259-.353-.115-.706-.228-1.043-.341Z" fill="#3a72aa"/><path d="M632.705,1738.535c0,0,40.224,9.771,60.946-.728c0,0,.856-5.235,2.352-14.602c0,0-28.339,7.653-63.791-.288-.158,9.132.621,14.86.493,15.618Z" fill="#3a72aa"/><path d="M607.163,1546.963c38.311,10.823,71.049,10.245,87.531,8.862c7.295-.607,11.401-1.369,11.401-1.369s12.869-265.952,16.778-322.171c6.308-57.997,10.922-192.038-16.778-215.011L696,1019c-67.282,83.495-82.628,487.069-88.837,527.963Z" fill="#fff"/><path d="M829.511,1556.573c0,0,3.669.55,9.13.748c10.851.409,28.801-.635,38.834-10.358c1.284-21.463,18.697-503.681-102.292-530.281l-.014-.014c-3.937-.86-8.015-1.242-12.249-1.115c78.995,74.338,74.395,478.564,66.591,541.02Z" fill="#fff"/><path d="M713.928,980.166c0,.006,42.064,25.083,59.654,9.641c15.518-13.624,18-30.034,10.833-43.353c0,0-19.791,6.893-64.511,5.004c0,.001,3.126,20.168-5.976,28.708Z" fill="#fff"/><path d="M719.905,952.328c.974.029,1.195-1.475.226-1.708l-18.516-5.006c-6.018,1.932,18.495,6.172,18.29,6.714Z" fill="#c16256"/><path d="M713.927,981.036c.823.029,1.203-1.15.482-1.593-.525.163-18.068-13.225-18.196-11.049-1.317,1.34,17.104,12.154,17.714,12.642Z" fill="#c16256"/><path d="M683.539,957.93c3.733,17.243,24.787,12.792,21.221-4.486-3.733-17.243-24.787-12.791-21.221,4.486Z" fill="#f99370"/><path d="M689.011,961.494c.572.007,1.008-.576.831-1.123-3.286-9.173.78-13.028,6.966-10.481c6.084-2.076-15.451-7.687-8.627,10.99.113.373.458.614.83.614Z" fill="#c16256"/><path d="M697.125,960.279c2.635-.372-2.364-8.445-9.038-8.989-1.128-.098-1.24,1.678-.115,1.734c6.718.694,7.562,7.032,9.153,7.255Z" fill="#c16256"/><path d="M704.414,1068.121c4.346,33.867-27.511,88.494,22.336,103.791l-37.544,9.007-10.474-40.6l25.682-72.198Z" fill="#d1e0f2"/><path d="M829.511,1556.573c0,0,3.669.55,9.13.748c7.394-70.189,5.32-160.26,3.654-204.54-1.736-45.72-7.295-140.18-22.648-223.407-15.367-83.227-44.464-112.691-44.464-112.691l-.014-.014c-3.937-.86-8.015-1.242-12.249-1.115c78.995,74.337,74.395,478.563,66.591,541.019Z" fill="#d1e0f2"/><path d="M638.682,1218.968l-.649,6.413c29.627,14.631,84.847,6.91,84.847,6.91.561-8.55,1.112-16.766,1.633-24.657l-78.066-22.916c-2.504,13.691-5.826,20.047-7.765,34.25Z" fill="#d1e0f2"/><path d="M694.694,1555.825c7.295-.607,11.401-1.369,11.401-1.369s12.869-265.952,16.778-322.171c6.308-57.997,10.927-192.042-16.773-215.015L696,1019c9.318,5.497,22.147,46.026,21.794,102.457-.479,75.65-8.17,167.471-12.009,231.323-3.287,54.751-9.412,171.027-11.091,203.045Z" fill="#d1e0f2"/><path d="M740.121,937.327c.267,0,.524-.153.642-.412c3.058-6.698,10.25-6.536,10.301-6.528.374-.007.717-.292.73-.681.012-.39-.292-.716-.681-.73-.087-.007-8.191-.189-11.635,7.352-.161.356-.005.773.349.936.095.043.196.063.294.063Z" fill="#c16256"/><path d="M769.051,929.216c.214,0,.426-.096.563-.281.234-.311.174-.751-.136-.985-.163-.123-4.056-3-10.462-.735-.367.131-.56.534-.43.901.131.368.532.559.901.43c5.654-1.997,9.002.426,9.141.529.127.096.276.141.423.141Z" fill="#c16256"/><path d="M706.121,1017.271c8.67,8.14,61.529,43.393,56.803-1.709-.494-.134-6.834-1.753-10.395-1.759.246.994,4.336,25.471-33.974,1.249-.164-.104-9.927.577-12.434,2.219Z" fill="#d1a68f"/><path d="M1029.99,1033.95c4.332,1.846-4.165,12.097-4.289,16.474c7.905-2.545,15.135-7.395,15.188-7.378c7.361-7.183,14.32-14.752,20.94-22.637c2.06-2.578,6.251.464,4.375,3.231-5.458,8.432-11.303,16.652-17.539,24.542.058.066.044.049.102.114c8.632-5.448,16.996-11.354,24.848-17.88.973-.809,2.191-1.298,3.456-1.275c10.932.202-21.632,24.635-24.236,26.857.025.036.019.027.044.063c8.922-3.725,17.421-8.479,25.344-14.034c1.168-.819,2.611-1.215,4.013-.945c9.68,1.866-24.303,23.204-27.685,24.531.003.041.005.081.008.122c7.375-1.889,14.523-4.656,21.479-7.778c1.129-.507,2.404-.655,3.597-.323c9.785,2.725-21.971,16.909-25.233,17.925-3.411,2.065-15.891,10.651-34.994,13.585-5.953.914-14.311-13.668-11.515-20.965c1.588-4.144,7.366-13.425,8.912-15.678c1.867-4.32,7.711-20.209,13.185-18.551Z" fill="#f99370"/><path d="M878.632,1052.518c.017.02,127.493,103.961,127.346,104.057c0,0-109.898,134.62-109.898,134.62-43.535,57.122-141.881,28.728-146.539-42.564-2.119-20.942,3.751-42.696,18.115-60.291.013-.005,110.886-135.976,110.976-135.822Z" fill="#eb5648"/><path d="M1105.734,905.3c34.761,28.827,39.799,80.331,11.21,115.349L1006.073,1156.46c-.14.144-127.494-103.95-127.452-104.046c54.676-52.429,130.954-223.02,227.113-147.114Z" fill="#fff"/><path d="M815.985,1161.224c2.965,3.658-9.342,8.741-11.5,12.552c8.176,1.45,16.836.548,16.875.587c9.867-2.904,19.559-6.335,29.099-10.206c3.027-1.315,5.307,3.336,2.355,4.903-8.769,4.898-17.782,9.427-26.985,13.481.021.085.016.064.037.149c10.178-.775,20.334-2.081,30.327-4.173c1.238-.259,2.544-.122,3.651.491c9.566,5.294-30.646,11.648-33.987,12.393.005.043.004.033.009.076c9.628.883,19.363.659,28.965-.543c1.416-.177,2.876.149,3.988,1.043c7.682,6.179-32.336,9.133-35.947,8.724-.017.037-.033.074-.05.111c7.401,1.782,15.013,2.681,22.622,3.178c1.235.081,2.431.546,3.33,1.398c7.372,6.987-27.33,4.662-30.688,4.032-3.981.228-16.134,4.713-34.385-1.647-5.689-1.978-8.227-28.334-2.462-29.657c4.326-.992,11.99-5.4,14.411-6.667c3.673-2.945,16.273-14.252,20.335-10.225Z" fill="#f99370"/><path d="M771.167,1212.16c4.102-1.358,8.272-2.824,12.531-4.388.698-3.67,4.997-20.978-2.459-29.656-178.13-7.779-42.212-69.113-85.24-159.115-127.746,8.42-191.8,268.087,75.168,193.159Z" fill="#fff"/><path d="M771.163,1212.16c4.103-1.358,8.275-2.824,12.536-4.388.698-3.67,4.998-20.978-2.46-29.656c0,0-4.879-.515-10.076-.515c0-.001,8.786,15.471,0,34.559Z" fill="#d1e0f2"/></g><g><path d="M2348.375,1705.487h-192.366v-283.14c0-40.929,33.179-74.108,74.108-74.108h44.151c0,0,74.108,33.179,74.108,74.108v283.14h-.001Z" fill="#23659b"/><ellipse rx="96.183" ry="30.474" transform="translate(2252.19 1705.49)" fill="#23659b"/><rect width="110.009" height="37.051" rx="0" ry="0" transform="translate(2197.19 1318.89)" fill="#23659b"/><path d="M2169.817,1517.922v166.416c0,16.83,36.88,30.474,82.375,30.474s82.375-13.644,82.375-30.474v-166.416h-164.75Z" fill="#f9b233"/><ellipse rx="82.375" ry="30.474" transform="translate(2252.19 1517.92)" fill="#f39200"/><path d="M2233.304,1511.097c0,13.412,8.456,24.284,18.888,24.284c10.431,0,18.887-10.872,18.887-24.284v-164.551c0-3.221-37.775-3.221-37.775,0v164.551Z" fill="#f9b233"/><path d="M2176.483,1270.282v67.138c0,8.534,33.896,15.453,75.708,15.453c41.813,0,75.708-6.919,75.708-15.453v-67.138h-151.416Z" fill="#3a72aa"/><ellipse rx="75.709" ry="15.453" transform="translate(2252.19 1270.28)" fill="#23659b"/><path d="M2276.475,1171.004c0-13.412-10.872-24.284-24.284-24.284-13.411,0-24.284,10.872-24.284,24.284v99.278v0v0c0,3.221,10.872,5.833,24.284,5.833s24.284-2.612,24.284-5.833v0v0-99.278Z" fill="#617ac9"/></g></g></svg>
